# AST/ASF file generated using VICON BodyLanguage
# -----------------------------------------------
:version 1.10
:name VICON
:units
  mass 1.0
  length 0.45
  angle deg
:documentation
   .ast/.asf automatically generated from VICON data using
   VICON BodyBuilder and BodyLanguage model FoxedUp or BRILLIANT.MOD
:root
   order TX TY TZ RX RY RZ
   axis XYZ
   position 0 0 0  
   orientation 0 0 0 
:bonedata
  begin
     id 1 
     name lhipjoint
     direction 0.528046 -0.759594 0.379717 
     length 2.39752 
     axis 0 0 0  XYZ
  end
  begin
     id 2 
     name lfemur
     direction 0.34202 -0.939693 0  
     length 7.31175  
     axis 0 0 20  XYZ
    dof rx ry rz
    limits (-160.0 20.0)
           (-70.0 70.0)
           (-60.0 70.0)
  end
  begin
     id 3 
     name ltibia
     direction 0.34202 -0.939693 0   
     length 7.52482   
     axis 0 0 20   XYZ
    dof rx
    limits (-10.0 170.0)
  end
  begin
     id 4 
     name lfoot
     direction 0.0675379 -0.185559 0.980309   
     length 2.00961   
     axis -90 7.62852e-016 20   XYZ
    dof rx rz
    limits (-45.0 90.0)
           (-70.0 20.0)
  end
  begin
     id 5 
     name ltoes
     direction 1.5352e-011 -4.22286e-011 1   
     length 1.01383   
     axis -90 7.62852e-016 20   XYZ
    dof rx
    limits (-90.0 20.0)
  end
  begin
     id 6 
     name rhipjoint
     direction -0.510274 -0.769251 0.384544   
     length 2.36742  
     axis 0 0 0  XYZ 
  end
  begin
     id 7 
     name rfemur
     direction -0.34202 -0.939693 0   
     length 7.45325   
     axis 0 0 -20   XYZ
    dof rx ry rz
    limits (-160.0 20.0)
           (-70.0 70.0)
           (-70.0 60.0)
  end
  begin
     id 8 
     name rtibia
     direction -0.34202 -0.939693 0   
     length 7.49587   
     axis 0 0 -20   XYZ
    dof rx
    limits (-10.0 170.0)
 end
 begin
     id 9 
     name rfoot
     direction -0.106475 -0.292536 0.950308   
     length 2.20898  
     axis -90 -7.62852e-016 -20   XYZ
    dof rx rz
    limits (-45.0 90.0)
           (-20.0 70.0)
  end
  begin
     id 10 
     name rtoes
     direction -1.53597e-011 -4.22023e-011 1   
     length 1.10065   
     axis -90 -7.62852e-016 -20   XYZ
    dof rx
    limits (-90.0 20.0)
  end
  begin
     id 11 
     name lowerback
     direction 0.0260024 0.998026 -0.0571652   
     length 2.11214   
     axis 0 0 0   XYZ
    dof rx ry rz
    limits (-20.0 45.0)
           (-30.0 30.0)
           (-30.0 30.0)
  end
  begin
     id 12 
     name upperback
     direction 0.0216202 0.999542 -0.0211766   
     length 2.11689   
     axis 0 0 0   XYZ
    dof rx ry rz
    limits (-20.0 45.0)
           (-30.0 30.0)
           (-30.0 30.0)
  end
  begin
     id 13 
     name thorax
     direction 0.00883312 0.999944 0.00589057   
     length 2.11821   
     axis 0 0 0   XYZ
    dof rx ry rz
    limits (-20.0 45.0)
           (-30.0 30.0)
           (-30.0 30.0)
  end
  begin
     id 14 
     name lowerneck
     direction -0.059386 0.994433 0.0870401   
     length 1.81176   
     axis 0 0 0   XYZ
    dof rx ry rz
    limits (-20.0 45.0)
           (-30.0 30.0)
           (-30.0 30.0)
  end
  begin
     id 15 
     name upperneck
     direction 0.0506457 0.97328 -0.223967   
     length 1.82382   
     axis 0 0 0   XYZ
    dof rx ry rz
    limits (-20.0 45.0)
           (-30.0 30.0)
           (-30.0 30.0)
  end
  begin
     id 16
     name head
     direction 0.0205902 0.996147 -0.0852487  
     length 1.84805  
     axis 0 0 0   XYZ
    dof rx ry rz
    limits (-20.0 45.0)
           (-30.0 30.0)
           (-30.0 30.0)
  end
  begin
     id 17 
     name lclavicle
     direction 0.949493 0.303881 -0.0782325  
     length 3.60584  
     axis 0 0 0   XYZ
    dof ry rz
    limits (-20.0 10.0)
           (0.0 20.0)
  end
  begin
     id 18 
     name lhumerus
     direction 1 -4.48965e-011 1.48782e-027   
     length 4.95681   
     axis 180 -30 -90   XYZ
    dof rx ry rz
    limits (-60.0 90.0)
           (-90.0 90.0)
           (-90.0 90.0)
  end
  begin
     id 19
     name lradius
     direction 1 -4.48952e-011 2.06528e-027   
     length 3.40915   
     axis 180 -30 -90   XYZ
    dof rx
    limits (-10.0 170.0)
  end
  begin
     id 20
     name lwrist
     direction 1 -4.48964e-011 1.28021e-027   
     length 1.70457   
     axis -1.61767e-015 90 90   XYZ
    dof ry
    limits (-180.0 0.0)
 end
  begin
     id 21 
     name lhand
     direction 1 -4.49094e-011 2.54887e-027   
     length 0.616403   
     axis -1.63363e-015 90 90   XYZ
    dof rx rz
    limits (-90.0 90.0)
           (-45.0 45.0)
  end
  begin
     id 22 
     name lfingers
     direction 1 -4.49002e-011 5.11407e-027   
     length 0.49696   
     axis -3.26723e-015 90 90   XYZ
    dof rx
    limits (0.0 90.0)
  end
  begin
     id 23
     name lthumb
     direction 0.707107 -6.34998e-011 0.707107   
     length 0.713539   
     axis -90 45 -2.25915e-014   XYZ
    dof rx rz
    limits (-45.0 45.0)
           (-45.0 45.0)
  end
  begin
     id 24 
     name rclavicle
     direction -0.937751 0.334612 -0.0930482   
     length 3.46287  
     axis 0 0 0   XYZ 
    dof ry rz
    limits (-10.0 20.0)
           (-20.0 0.0)
  end
  begin
     id 25 
     name rhumerus
     direction -1 -4.48962e-011 3.59972e-027  
     length 5.352   
     axis 180 30 90   XYZ
    dof rx ry rz
    limits (-90.0 60.0)
           (-90.0 90.0)
           (-90.0 90.0)
  end
  begin
     id 26 
     name rradius
     direction -1 -4.48987e-011 -3.76925e-027   
     length 3.43721   
     axis 180 30 90   XYZ
    dof rx
    limits (-10.0 170.0)
  end
  begin
     id 27 
     name rwrist
     direction -1 -4.48943e-011 1.28112e-027   
     length 1.7186   
     axis -1.61767e-015 -90 -90   XYZ
    dof ry
    limits (-180.0 0.0)
  end
  begin
     id 28
     name rhand
     direction -1 -4.49027e-011 2.55483e-027   
     length 0.72009   
     axis -1.63363e-015 -90 -90   XYZ
    dof rx rz
    limits (-90.0 90.0)
           (-45.0 45.0)
  end
  begin
     id 29
     name rfingers
     direction -1 -4.48827e-011 5.14506e-027   
     length 0.580555   
     axis -3.26723e-015 -90 -90   XYZ
    dof rx
    limits (0.0 90.0)
  end
  begin
     id 30
     name rthumb
     direction -0.707107 -6.34936e-011 0.707107   
     length 0.833564   
     axis -90 -45 2.25915e-014   XYZ
    dof rx rz
    limits (-45.0 45.0)
           (-45.0 45.0)
  end
:hierarchy
  begin
    root lhipjoint rhipjoint lowerback
    lhipjoint lfemur
    lfemur ltibia
    ltibia lfoot
    lfoot ltoes
    rhipjoint rfemur
    rfemur rtibia
    rtibia rfoot
    rfoot rtoes
    lowerback upperback
    upperback thorax
    thorax lowerneck lclavicle rclavicle
    lowerneck upperneck
    upperneck head
    lclavicle lhumerus
    lhumerus lradius
    lradius lwrist
    lwrist lhand lthumb
    lhand lfingers
    rclavicle rhumerus
    rhumerus rradius
    rradius rwrist
    rwrist rhand rthumb
    rhand rfingers
  end

#!OML:ASF H:\Terrain\Patient Classification 1\Terrain2\Thursday\justin.ASF
:FULLY-SPECIFIED
:DEGREES
697
root 20.1075 23.9398 14.8938 -2.36088 -8.11137 -4.52043
lowerback 3.25278 1.0378 4.6456
upperback 2.38561 1.48105 3.06626
thorax 0.667319 0.770898 0.509457
lowerneck -11.1744 -1.45948 -8.55847
upperneck 39.5934 -1.57951 4.33412
head 16.0988 -1.38432 3.17479
rclavicle 1.49089e-015 -1.35174e-014
rhumerus -33.1583 -9.31937 -78.8925
rradius 30.8313
rwrist -11.579
rhand -18.9189 10.8263
rfingers 7.12502
rthumb 7.38347 -19.0248
lclavicle 1.49089e-015 -1.35174e-014
lhumerus -37.0243 9.70531 84.4418
lradius 26.0755
lwrist -0.223287
lhand -12.0524 21.246
lfingers 7.12502
lthumb 14.0065 50.7542
rfemur 11.6259 0.95222 25.0239
rtibia 33.0955
rfoot -7.51654 4.02782
rtoes -5.95876
lfemur -20.0708 5.36747 -14.9708
ltibia 24.4212
lfoot -2.71564 -12.3743
ltoes -4.81653
698
root 20.1212 23.9645 14.97 -2.19867 -7.90011 -4.35984
lowerback 3.33866 1.10267 4.47751
upperback 2.27526 1.57571 3.00767
thorax 0.504509 0.813407 0.536679
lowerneck -11.1035 -1.5495 -8.57991
upperneck 39.4973 -1.70871 4.32846
head 16.0443 -1.43831 3.15181
rclavicle -8.15017e-015 3.10104e-014
rhumerus -33.1518 -9.39992 -78.9074
rradius 30.9663
rwrist -11.4656
rhand -18.8616 10.9806
rfingers 7.12502
rthumb 7.43876 -18.8686
lclavicle -8.15017e-015 3.10104e-014
lhumerus -36.6006 9.02766 84.6603
lradius 26.6086
lwrist -0.0509276
lhand -12.0189 21.381
lfingers 7.12502
lthumb 14.0388 50.8869
rfemur 10.5701 0.750112 24.8535
rtibia 34.7531
rfoot -6.03387 3.66563
rtoes -5.85913
lfemur -19.8669 5.74337 -15.3189
ltibia 24.0401
lfoot -2.45033 -12.9781
ltoes -4.09851
699
root 20.1344 23.9946 15.0553 -2.05755 -7.82689 -4.36146
lowerback 3.3492 1.1039 4.40282
upperback 2.1951 1.58046 3.031
thorax 0.413293 0.812844 0.600525
lowerneck -10.9998 -1.54317 -8.69544
upperneck 39.4426 -1.69694 4.38678
head 15.9917 -1.44157 3.19793
rclavicle 2.03009e-014 3.18055e-014
rhumerus -33.0996 -8.95002 -79.1374
rradius 31.0859
rwrist -11.6887
rhand -18.867 10.9019
rfingers 7.12502
rthumb 7.4335 -18.9475
lclavicle 2.03009e-014 3.18055e-014
lhumerus -36.4067 8.58537 84.7597
lradius 27.281
lwrist 0.0965073
lhand -12.0022 21.3994
lfingers 7.12502
lthumb 14.0549 50.9042
rfemur 9.46189 0.599525 24.7837
rtibia 36.565
rfoot -4.3572 3.46373
rtoes -3.97471
lfemur -19.5991 6.03027 -15.4423
ltibia 23.7514
lfoot -2.35936 -13.3305
ltoes -3.80566
700
root 20.1489 24.0221 15.1535 -2.1092 -7.8882 -4.00773
lowerback 3.28746 1.02298 3.88457
upperback 2.26396 1.45231 3.00938
thorax 0.50227 0.745544 0.872594
lowerneck -11.0968 -1.47363 -8.66071
upperneck 39.3298 -1.54461 4.26275
head 15.9405 -1.3866 3.15737
rclavicle 2.6339e-015 1.19271e-014
rhumerus -32.9583 -8.11011 -79.534
rradius 31.2902
rwrist -11.8726
rhand -19.1989 11.1116
rfingers 7.12502
rthumb 7.11316 -18.7488
lclavicle 2.6339e-015 1.19271e-014
lhumerus -36.1204 8.37267 84.7885
lradius 27.8861
lwrist 0.697121
lhand -12.2163 21.096
lfingers 7.12502
lthumb 13.8485 50.615
rfemur 8.43871 0.327523 24.1756
rtibia 38.5861
rfoot -2.83423 3.47446
rtoes -2.74454
lfemur -19.2221 6.04989 -15.9018
ltibia 23.7972
lfoot -2.64896 -13.2144
ltoes -3.32981
701
root 20.162 24.0129 15.2335 -2.11701 -7.88395 -3.52491
lowerback 3.35748 0.924539 3.17456
upperback 2.26248 1.3077 2.98671
thorax 0.442783 0.665569 1.24779
lowerneck -11.1037 -1.38483 -8.59882
upperneck 39.0947 -1.33907 4.03874
head 15.7992 -1.31523 3.07199
rclavicle -4.13472e-014 -2.06736e-014
rhumerus -32.8744 -7.36673 -79.838
rradius 31.5467
rwrist -12.0457
rhand -19.393 11.6537
rfingers 7.12502
rthumb 6.92578 -18.213
lclavicle -4.13472e-014 -2.06736e-014
lhumerus -35.852 8.38442 84.7748
lradius 28.558
lwrist 1.17059
lhand -12.515 20.6304
lfingers 7.12502
lthumb 13.5607 50.1688
rfemur 7.2484 0.199676 23.5564
rtibia 40.7423
rfoot -1.48882 3.18148
rtoes -1.19302
lfemur -19.066 5.9161 -16.493
ltibia 23.929
lfoot -2.66834 -12.9519
ltoes -1.33808
702
root 20.1757 23.9833 15.3016 -1.93605 -7.88177 -3.34367
lowerback 3.44799 0.932917 2.90258
upperback 2.12406 1.32263 2.97444
thorax 0.243594 0.668463 1.38313
lowerneck -11.0706 -1.37264 -8.77898
upperneck 39.0718 -1.33318 4.19501
head 15.7819 -1.31802 3.17291
rclavicle -3.67752e-015 -2.54444e-014
rhumerus -32.9633 -7.14916 -79.9545
rradius 31.8598
rwrist -11.9879
rhand -19.0448 11.7758
rfingers 7.12502
rthumb 7.26193 -18.0796
lclavicle -3.67752e-015 -2.54444e-014
lhumerus -35.6911 8.18157 84.7552
lradius 29.3499
lwrist 1.15935
lhand -12.3092 20.655
lfingers 7.12502
lthumb 13.759 50.18
rfemur 5.81839 0.143263 23.3761
rtibia 42.9425
rfoot -0.355164 2.86203
rtoes -1.33429
lfemur -19.1316 6.27931 -16.834
ltibia 23.9919
lfoot -2.45921 -13.2071
ltoes 0.355466
703
root 20.1899 23.9924 15.3809 -1.84642 -7.93134 -2.99494
lowerback 3.45859 1.04991 2.64743
upperback 2.06273 1.47462 2.81357
thorax 0.171525 0.742657 1.35454
lowerneck -11.1222 -1.46806 -8.98625
upperneck 39.0881 -1.53877 4.52167
head 15.827 -1.39117 3.32225
rclavicle -2.45996e-014 -3.97569e-015
rhumerus -33.0697 -7.37245 -80.0221
rradius 32.2862
rwrist -11.6561
rhand -18.6844 11.0185
rfingers 7.12502
rthumb 7.60977 -18.8246
lclavicle -2.45996e-014 -3.97569e-015
lhumerus -35.3502 7.52102 84.8151
lradius 30.0487
lwrist 1.30928
lhand -11.9451 21.3014
lfingers 7.12502
lthumb 14.1099 50.8024
rfemur 4.48227 0.120341 22.9242
rtibia 45.0628
rfoot 0.851051 2.83701
rtoes -0.00835317
lfemur -19.0116 6.89008 -17.3889
ltibia 24.0116
lfoot -2.67706 -13.8505
ltoes 0.106378
704
root 20.2017 24.0272 15.4641 -1.81207 -7.9844 -2.85872
lowerback 3.51841 1.06569 2.54364
upperback 2.04731 1.49597 2.74626
thorax 0.121127 0.75251 1.34122
lowerneck -11.3931 -1.52499 -9.0339
upperneck 39.1876 -1.57217 4.49011
head 15.95 -1.41831 3.31699
rclavicle -1.58531e-014 5.56597e-015
rhumerus -32.9794 -7.22023 -80.2263
rradius 32.4686
rwrist -11.4482
rhand -18.5472 10.7308
rfingers 7.12502
rthumb 7.74221 -19.1075
lclavicle -1.58531e-014 5.56597e-015
lhumerus -35.0617 7.10393 84.7807
lradius 30.8191
lwrist 1.72178
lhand -11.7156 22.1562
lfingers 7.12502
lthumb 14.331 51.6415
rfemur 3.32205 -0.0927666 22.5863
rtibia 46.9555
rfoot 1.9934 2.77542
rtoes 3.58812
lfemur -18.6316 7.1492 -17.6319
ltibia 23.7871
lfoot -3.17577 -14.2085
ltoes -1.66674
705
root 20.2138 24.0518 15.5392 -1.75318 -8.02104 -2.71928
lowerback 3.68591 1.0216 2.34577
upperback 1.98238 1.44103 2.70971
thorax -0.04305 0.722643 1.4119
lowerneck -11.59 -1.52801 -9.23249
upperneck 39.2588 -1.55685 4.63213
head 16.0385 -1.42475 3.42198
rclavicle -2.22142e-014 -3.97569e-015
rhumerus -32.8465 -6.88399 -80.5025
rradius 32.525
rwrist -11.3236
rhand -18.5391 11.1578
rfingers 7.12502
rthumb 7.75001 -18.6802
lclavicle -2.22142e-014 -3.97569e-015
lhumerus -34.9796 6.98631 84.6497
lradius 31.7138
lwrist 2.27129
lhand -12.1952 22.2886
lfingers 7.12502
lthumb 13.8689 51.8061
rfemur 2.26016 -0.605583 22.2475
rtibia 48.5894
rfoot 2.70163 2.48149
rtoes 3.33159
lfemur -18.0536 7.344 -17.8702
ltibia 23.0146
lfoot -3.11958 -14.3211
ltoes -2.09998
706
root 20.227 24.0668 15.6064 -1.81739 -7.96395 -2.07122
lowerback 3.88973 1.00988 1.63552
upperback 1.99332 1.40936 2.52854
thorax -0.158651 0.702646 1.62063
lowerneck -11.4876 -1.49272 -9.44756
upperneck 39.0134 -1.58543 4.98355
head 15.8918 -1.41493 3.60106
rclavicle -2.55935e-014 -1.74931e-014
rhumerus -32.7475 -6.77736 -80.7287
rradius 32.8575
rwrist -11.188
rhand -18.5792 11.1102
rfingers 7.12502
rthumb 7.71134 -18.7292
lclavicle -2.55935e-014 -1.74931e-014
lhumerus -34.7126 6.59221 84.7135
lradius 32.3936
lwrist 3.41508
lhand -13.799 21.4074
lfingers 7.12502
lthumb 12.3229 51.0242
rfemur 1.38423 -0.748821 21.484
rtibia 50.2431
rfoot 2.73444 1.21472
rtoes 4.61741
lfemur -17.5249 7.53263 -18.6778
ltibia 22.3958
lfoot -2.85837 -14.4875
ltoes -1.3102
